<svg width="151.34" height="112.044" viewBox="0 0 151.34 112.044" xmlns="http://www.w3.org/2000/svg"><g id="svgGroup" stroke-linecap="round" fill-rule="evenodd" font-size="9pt" stroke="#000" stroke-width="0.25mm" fill="#000" style="stroke:#000;stroke-width:0.25mm;fill:#000"><path d="M 23.24 85.4 L 23.24 84.98 A 2.569 2.569 0 0 1 23.286 84.469 Q 23.468 83.58 24.36 83.58 A 1.677 1.677 0 0 1 25.023 83.702 Q 25.73 84.004 25.877 85.053 A 3.727 3.727 0 0 1 25.9 85.26 Q 26.04 85.68 26.949 86.169 A 9.347 9.347 0 0 0 26.95 86.17 A 3.444 3.444 0 0 0 27.704 86.459 Q 28.44 86.654 29.473 86.66 A 11.361 11.361 0 0 0 29.54 86.66 Q 30.66 86.66 31.99 86.38 A 15.821 15.821 0 0 0 33.938 85.833 A 18.545 18.545 0 0 0 34.72 85.54 A 15.48 15.48 0 0 0 37.683 83.848 Q 39.005 82.901 40.353 81.603 A 34.345 34.345 0 0 0 42.21 79.66 Q 46.06 75.32 48.3 67.62 A 34.151 34.151 0 0 0 49.372 63.005 A 26.272 26.272 0 0 0 49.7 58.94 Q 49.7 54.634 48.261 51.768 A 9.545 9.545 0 0 0 46.48 49.28 A 11.112 11.112 0 0 0 43.01 46.878 A 10.246 10.246 0 0 0 38.92 46.06 A 20.972 20.972 0 0 0 27.535 49.452 A 25.87 25.87 0 0 0 26.53 50.12 A 38.998 38.998 0 0 0 17.403 59.129 A 44.817 44.817 0 0 0 16.45 60.48 Q 12.18 66.78 9.66 73.64 Q 8.12 77.84 7.42 81.76 A 45.488 45.488 0 0 0 6.819 86.496 A 37.498 37.498 0 0 0 6.72 89.18 A 30.118 30.118 0 0 0 7.317 95.351 Q 8.148 99.321 10.136 102.379 A 17.959 17.959 0 0 0 11.34 104.02 Q 15.96 109.62 23.94 109.62 Q 30.94 109.62 37.52 106.33 A 55.622 55.622 0 0 0 47.46 99.908 A 64.801 64.801 0 0 0 50.12 97.65 Q 56.14 92.26 61.39 85.75 A 151.441 151.441 0 0 0 70.373 73.421 A 139.434 139.434 0 0 0 70.91 72.59 Q 75.18 65.94 78.4 60.2 Q 81.62 54.46 83.58 50.68 A 74.269 74.269 0 0 0 78.517 51.657 Q 75.462 52.364 72.94 53.27 Q 68.889 54.726 66.326 59.559 A 22.089 22.089 0 0 0 65.8 60.62 A 2.583 2.583 0 0 1 65.506 61.149 Q 65.344 61.378 65.12 61.613 A 6.5 6.5 0 0 1 64.61 62.09 Q 63.747 62.821 63.072 62.984 A 1.832 1.832 0 0 1 63 63 Q 62.907 63 62.844 63.031 A 0.208 0.208 0 0 0 62.79 63.07 Q 62.732 63.128 62.626 63.138 A 0.492 0.492 0 0 1 62.58 63.14 A 1.694 1.694 0 0 1 62.565 63.14 Q 61.647 63.132 61.603 62.126 A 2.38 2.38 0 0 1 61.6 62.02 Q 61.6 61.111 62.564 59.118 A 26.642 26.642 0 0 1 62.72 58.8 A 30.135 30.135 0 0 1 67.815 52.37 A 25.41 25.41 0 0 1 73.36 48.37 Q 79.8 44.94 86.94 43.96 Q 89.32 39.48 91.84 34.44 Q 94.36 29.4 97.44 24.36 Q 100.24 19.46 103.46 14.49 Q 106.68 9.52 109.9 5.74 Q 108.5 5.6 107.1 5.53 Q 105.7 5.46 104.16 5.46 Q 96.74 5.46 89.39 7.28 A 36.702 36.702 0 0 0 81.353 10.256 A 31.33 31.33 0 0 0 76.65 13.23 A 18.972 18.972 0 0 0 69.896 23.295 A 24.143 24.143 0 0 0 69.58 24.5 Q 69.44 25.06 69.37 25.69 A 11.587 11.587 0 0 0 69.305 26.653 A 13.454 13.454 0 0 0 69.3 27.02 A 9.221 9.221 0 0 0 69.686 29.749 A 7.408 7.408 0 0 0 71.47 32.76 A 7.223 7.223 0 0 0 74.283 34.601 A 7.315 7.315 0 0 0 76.72 35 A 7.485 7.485 0 0 0 80.763 33.794 A 10.157 10.157 0 0 0 81.97 32.9 Q 84.42 30.8 85.96 27.86 A 17.262 17.262 0 0 0 86.821 25.964 Q 87.193 24.981 87.361 24.092 A 7.6 7.6 0 0 0 87.5 22.68 A 4.305 4.305 0 0 1 87.535 22.109 Q 87.618 21.487 87.905 21.214 A 0.8 0.8 0 0 1 88.48 21 A 0.696 0.696 0 0 1 89.146 21.416 Q 89.301 21.726 89.318 22.266 A 4.333 4.333 0 0 1 89.32 22.4 Q 89.32 27.026 87.271 30.131 A 10.85 10.85 0 0 1 87.15 30.31 Q 84.98 33.46 81.76 35 Q 78.54 36.54 75.04 36.54 Q 70.28 36.54 66.57 33.46 A 8.44 8.44 0 0 1 63.472 27.233 Q 63.411 26.273 63.512 25.221 A 15.183 15.183 0 0 1 63.56 24.78 A 19.802 19.802 0 0 1 65.179 18.964 A 16.731 16.731 0 0 1 68.67 14 A 29.169 29.169 0 0 1 77.664 8.018 A 33.955 33.955 0 0 1 78.96 7.49 Q 84.98 5.18 91.56 4.34 Q 98.14 3.5 103.6 3.5 Q 106.68 3.5 109.2 3.71 Q 111.72 3.92 113.12 4.2 A 0.563 0.563 0 0 1 113.498 4.588 Q 113.54 4.723 113.54 4.9 A 2.104 2.104 0 0 1 113.476 5.392 Q 113.359 5.874 113.032 6.495 A 8.87 8.87 0 0 1 112.91 6.72 A 24.292 24.292 0 0 1 112.651 7.17 Q 112.298 7.767 112.088 8.023 A 1.384 1.384 0 0 1 112 8.12 Q 106.82 16.66 103.04 25.48 Q 99.26 34.3 95.2 43.54 Q 99.26 43.68 104.23 44.45 Q 109.2 45.22 113.68 45.99 Q 117.11 46.58 119.391 46.964 A 735.91 735.91 0 0 0 120.68 47.18 Q 125.3 38.78 129.64 31.01 Q 133.98 23.24 137.48 16.94 L 143.08 6.86 A 38.387 38.387 0 0 1 144.249 4.903 Q 145.552 2.87 146.72 1.75 A 17.764 17.764 0 0 1 147.415 1.116 Q 148.451 0.224 149.085 0.036 A 1.309 1.309 0 0 1 149.24 0 L 149.8 0 A 1.74 1.74 0 0 1 150.267 0.059 A 1.15 1.15 0 0 1 150.99 0.63 Q 151.34 1.26 151.34 1.96 A 5.058 5.058 0 0 1 151.248 2.949 A 3.837 3.837 0 0 1 150.92 3.92 Q 150.798 4.165 149.286 7.402 A 4225.411 4225.411 0 0 0 148.82 8.4 Q 146.86 12.6 143.78 19.18 Q 140.7 25.76 137.2 33.18 Q 133.7 40.6 130.48 47.32 Q 133.14 47.46 135.1 47.25 A 10.554 10.554 0 0 0 136.204 47.077 Q 137.33 46.833 138.005 46.365 A 3.031 3.031 0 0 0 138.04 46.34 A 7.397 7.397 0 0 1 138.574 45.973 Q 139.117 45.636 139.539 45.539 A 1.441 1.441 0 0 1 139.86 45.5 A 1.008 1.008 0 0 1 140.137 45.535 Q 140.448 45.624 140.53 45.941 A 1.031 1.031 0 0 1 140.56 46.2 A 1.649 1.649 0 0 1 140.41 46.854 Q 140.169 47.409 139.545 48.069 A 9.8 9.8 0 0 1 139.02 48.58 A 12.079 12.079 0 0 1 138.009 49.388 Q 136.913 50.178 135.32 51.043 A 40.586 40.586 0 0 1 134.82 51.31 Q 132.239 52.665 128.587 52.89 A 23.221 23.221 0 0 1 127.96 52.92 Q 126.324 56.193 124.291 60.292 A 4044.674 4044.674 0 0 0 122.36 64.19 Q 119.14 70.7 116.2 78.12 Q 115.658 79.476 115.181 81.225 A 39.816 39.816 0 0 0 115.15 81.34 A 14.373 14.373 0 0 0 114.729 83.56 A 12.129 12.129 0 0 0 114.66 84.84 A 7.058 7.058 0 0 0 114.847 86.501 A 5.432 5.432 0 0 0 115.57 88.2 Q 116.393 89.466 118.304 89.587 A 6.584 6.584 0 0 0 118.72 89.6 A 13.416 13.416 0 0 0 123.865 88.534 A 18.873 18.873 0 0 0 127.19 86.73 A 42.718 42.718 0 0 0 131.84 83.089 A 56.541 56.541 0 0 0 135.66 79.31 Q 139.86 74.76 143.78 69.58 A 4.358 4.358 0 0 1 144.101 69.232 Q 144.611 68.74 145.04 68.74 A 0.583 0.583 0 0 1 145.597 69.075 Q 145.726 69.325 145.739 69.761 A 3.347 3.347 0 0 1 145.74 69.86 A 2.39 2.39 0 0 1 145.24 71.323 A 2.998 2.998 0 0 1 145.18 71.4 Q 141.12 76.72 136.78 81.69 A 48.473 48.473 0 0 1 131.801 86.653 A 38.59 38.59 0 0 1 127.68 89.74 Q 122.92 92.82 117.46 92.82 A 18.062 18.062 0 0 1 114.529 92.599 Q 113.003 92.348 111.806 91.809 A 7.105 7.105 0 0 1 109.27 89.95 A 10.052 10.052 0 0 1 107.042 85.149 A 14.047 14.047 0 0 1 106.82 82.6 A 20.121 20.121 0 0 1 107.052 79.613 A 24.099 24.099 0 0 1 107.31 78.19 Q 107.8 75.88 108.5 73.5 A 83.186 83.186 0 0 1 112.415 63.691 A 92.933 92.933 0 0 1 113.12 62.23 A 3082.908 3082.908 0 0 1 115.102 58.224 Q 116.655 55.09 117.88 52.64 A 73.992 73.992 0 0 1 116.576 52.474 Q 115.115 52.275 113.169 51.965 A 268.845 268.845 0 0 1 111.3 51.66 Q 107.1 50.96 102.2 50.4 Q 97.3 49.84 92.4 49.98 A 167.933 167.933 0 0 1 86.926 61.762 A 197.881 197.881 0 0 1 84 67.27 Q 79.1 76.16 72.87 84.28 Q 66.64 92.4 59.01 98.84 Q 51.38 105.28 42.28 108.85 Q 34.138 112.044 24.763 112.044 A 56.355 56.355 0 0 1 22.54 112 Q 16.38 111.72 11.2 108.71 Q 6.02 105.7 3.01 100.24 A 23.804 23.804 0 0 1 0.424 92.649 A 31.753 31.753 0 0 1 0 87.36 A 38.161 38.161 0 0 1 0.499 81.304 A 43.034 43.034 0 0 1 0.7 80.15 A 42.578 42.578 0 0 1 1.903 75.376 A 52.603 52.603 0 0 1 2.94 72.38 Q 6.02 64.4 11.9 57.89 A 48.48 48.48 0 0 1 22.819 48.798 A 45.197 45.197 0 0 1 25.06 47.53 A 35.199 35.199 0 0 1 31.824 44.767 A 27.229 27.229 0 0 1 39.34 43.68 Q 45.5 43.68 49.91 47.74 A 13.071 13.071 0 0 1 53.674 54.138 Q 54.239 56.251 54.31 58.772 A 25.994 25.994 0 0 1 54.32 59.5 A 24.863 24.863 0 0 1 54.043 63.097 Q 53.779 64.905 53.261 66.882 A 42.62 42.62 0 0 1 53.06 67.62 Q 50.54 76.16 45.78 80.78 A 38.68 38.68 0 0 1 41.764 84.205 Q 39.528 85.848 37.292 86.904 A 22.269 22.269 0 0 1 36.26 87.36 A 21.926 21.926 0 0 1 32.464 88.37 A 17.651 17.651 0 0 1 29.54 88.62 Q 27.02 88.62 25.27 87.78 A 4.692 4.692 0 0 1 24.32 87.187 A 2.94 2.94 0 0 1 23.24 85.4 Z" vector-effect="non-scaling-stroke"/></g></svg>